<?xml version="1.0" encoding="utf-8" standalone="no"?>
<!DOCTYPE svg PUBLIC "-//W3C//DTD SVG 1.1//EN"
  "http://www.w3.org/Graphics/SVG/1.1/DTD/svg11.dtd">
<svg xmlns:xlink="http://www.w3.org/1999/xlink" width="1152pt" height="576pt" viewBox="0 0 1152 576" xmlns="http://www.w3.org/2000/svg" version="1.1">
 <metadata>
  <rdf:RDF xmlns:dc="http://purl.org/dc/elements/1.1/" xmlns:cc="http://creativecommons.org/ns#" xmlns:rdf="http://www.w3.org/1999/02/22-rdf-syntax-ns#">
   <cc:Work>
    <dc:type rdf:resource="http://purl.org/dc/dcmitype/StillImage"/>
    <dc:date>2023-05-20T18:01:21.557723</dc:date>
    <dc:format>image/svg+xml</dc:format>
    <dc:creator>
     <cc:Agent>
      <dc:title>Matplotlib v3.5.2, https://matplotlib.org/</dc:title>
     </cc:Agent>
    </dc:creator>
   </cc:Work>
  </rdf:RDF>
 </metadata>
 <defs>
  <style type="text/css">*{stroke-linejoin: round; stroke-linecap: butt}</style>
 </defs>
 <g id="figure_1">
  <g id="patch_1">
   <path d="M 0 576 
L 1152 576 
L 1152 0 
L 0 0 
z
" style="fill: #ffffff"/>
  </g>
  <g id="axes_1">
   <g id="patch_2">
    <path d="M 74.88 506.88 
L 1077.12 506.88 
L 1077.12 34.56 
L 74.88 34.56 
z
" style="fill: #ffffff"/>
   </g>
   <g id="matplotlib.axis_1">
    <g id="xtick_1">
     <g id="line2d_1">
      <path d="M 88.55372 506.88 
L 88.55372 34.56 
" clip-path="url(#p02477e790a)" style="fill: none; stroke-dasharray: 0.8,1.32; stroke-dashoffset: 0; stroke: #808080; stroke-opacity: 0.2; stroke-width: 0.8"/>
     </g>
     <g id="line2d_2">
      <defs>
       <path id="mc652a978ca" d="M 0 0 
L 0 3.5 
" style="stroke: #000000; stroke-width: 0.8"/>
      </defs>
      <g>
       <use xlink:href="#mc652a978ca" x="88.55372" y="506.88" style="stroke: #000000; stroke-width: 0.8"/>
      </g>
     </g>
     <g id="text_1">
      <!-- $\mathdefault{100}$ -->
      <g transform="translate(70.734434 531.868102)scale(0.26 -0.26)">
       <defs>
        <path id="CMR17-31" d="M 1702 4058 
C 1702 4192 1696 4192 1606 4192 
C 1357 3916 979 3827 621 3827 
C 602 3827 570 3827 563 3808 
C 557 3795 557 3782 557 3648 
C 755 3648 1088 3686 1344 3839 
L 1344 461 
C 1344 236 1331 160 781 160 
L 589 160 
L 589 0 
C 896 0 1216 0 1523 0 
C 1830 0 2150 0 2458 0 
L 2458 160 
L 2266 160 
C 1715 160 1702 230 1702 458 
L 1702 4058 
z
" transform="scale(0.015625)"/>
        <path id="CMR17-30" d="M 2688 2025 
C 2688 2416 2682 3080 2413 3591 
C 2176 4039 1798 4198 1466 4198 
C 1158 4198 768 4058 525 3597 
C 269 3118 243 2524 243 2025 
C 243 1661 250 1106 448 619 
C 723 -39 1216 -128 1466 -128 
C 1760 -128 2208 -7 2470 600 
C 2662 1042 2688 1559 2688 2025 
z
M 1466 -26 
C 1056 -26 813 325 723 812 
C 653 1188 653 1738 653 2096 
C 653 2588 653 2997 736 3387 
C 858 3929 1216 4096 1466 4096 
C 1728 4096 2067 3923 2189 3400 
C 2272 3036 2278 2607 2278 2096 
C 2278 1680 2278 1169 2202 792 
C 2067 95 1690 -26 1466 -26 
z
" transform="scale(0.015625)"/>
       </defs>
       <use xlink:href="#CMR17-31" transform="scale(0.996264)"/>
       <use xlink:href="#CMR17-30" transform="translate(45.690477 0)scale(0.996264)"/>
       <use xlink:href="#CMR17-30" transform="translate(91.380954 0)scale(0.996264)"/>
      </g>
     </g>
    </g>
    <g id="xtick_2">
     <g id="line2d_3">
      <path d="M 234.506287 506.88 
L 234.506287 34.56 
" clip-path="url(#p02477e790a)" style="fill: none; stroke-dasharray: 0.8,1.32; stroke-dashoffset: 0; stroke: #808080; stroke-opacity: 0.2; stroke-width: 0.8"/>
     </g>
     <g id="line2d_4">
      <g>
       <use xlink:href="#mc652a978ca" x="234.506287" y="506.88" style="stroke: #000000; stroke-width: 0.8"/>
      </g>
     </g>
     <g id="text_2">
      <!-- $\mathdefault{105}$ -->
      <g transform="translate(216.687001 531.868102)scale(0.26 -0.26)">
       <defs>
        <path id="CMR17-35" d="M 730 3692 
C 794 3666 1056 3584 1325 3584 
C 1920 3584 2246 3911 2432 4100 
C 2432 4157 2432 4192 2394 4192 
C 2387 4192 2374 4192 2323 4163 
C 2099 4058 1837 3973 1517 3973 
C 1325 3973 1037 3999 723 4139 
C 653 4171 640 4171 634 4171 
C 602 4171 595 4164 595 4037 
L 595 2203 
C 595 2089 595 2057 659 2057 
C 691 2057 704 2070 736 2114 
C 941 2401 1222 2522 1542 2522 
C 1766 2522 2246 2382 2246 1289 
C 2246 1085 2246 715 2054 421 
C 1894 159 1645 25 1370 25 
C 947 25 518 320 403 814 
C 429 807 480 795 506 795 
C 589 795 749 840 749 1038 
C 749 1210 627 1280 506 1280 
C 358 1280 262 1190 262 1011 
C 262 454 704 -128 1382 -128 
C 2042 -128 2669 440 2669 1264 
C 2669 2030 2170 2624 1549 2624 
C 1222 2624 947 2503 730 2274 
L 730 3692 
z
" transform="scale(0.015625)"/>
       </defs>
       <use xlink:href="#CMR17-31" transform="scale(0.996264)"/>
       <use xlink:href="#CMR17-30" transform="translate(45.690477 0)scale(0.996264)"/>
       <use xlink:href="#CMR17-35" transform="translate(91.380954 0)scale(0.996264)"/>
      </g>
     </g>
    </g>
    <g id="xtick_3">
     <g id="line2d_5">
      <path d="M 380.458854 506.88 
L 380.458854 34.56 
" clip-path="url(#p02477e790a)" style="fill: none; stroke-dasharray: 0.8,1.32; stroke-dashoffset: 0; stroke: #808080; stroke-opacity: 0.2; stroke-width: 0.8"/>
     </g>
     <g id="line2d_6">
      <g>
       <use xlink:href="#mc652a978ca" x="380.458854" y="506.88" style="stroke: #000000; stroke-width: 0.8"/>
      </g>
     </g>
     <g id="text_3">
      <!-- $\mathdefault{110}$ -->
      <g transform="translate(362.639568 531.868102)scale(0.26 -0.26)">
       <use xlink:href="#CMR17-31" transform="scale(0.996264)"/>
       <use xlink:href="#CMR17-31" transform="translate(45.690477 0)scale(0.996264)"/>
       <use xlink:href="#CMR17-30" transform="translate(91.380954 0)scale(0.996264)"/>
      </g>
     </g>
    </g>
    <g id="xtick_4">
     <g id="line2d_7">
      <path d="M 526.411421 506.88 
L 526.411421 34.56 
" clip-path="url(#p02477e790a)" style="fill: none; stroke-dasharray: 0.8,1.32; stroke-dashoffset: 0; stroke: #808080; stroke-opacity: 0.2; stroke-width: 0.8"/>
     </g>
     <g id="line2d_8">
      <g>
       <use xlink:href="#mc652a978ca" x="526.411421" y="506.88" style="stroke: #000000; stroke-width: 0.8"/>
      </g>
     </g>
     <g id="text_4">
      <!-- $\mathdefault{115}$ -->
      <g transform="translate(508.592135 531.868102)scale(0.26 -0.26)">
       <use xlink:href="#CMR17-31" transform="scale(0.996264)"/>
       <use xlink:href="#CMR17-31" transform="translate(45.690477 0)scale(0.996264)"/>
       <use xlink:href="#CMR17-35" transform="translate(91.380954 0)scale(0.996264)"/>
      </g>
     </g>
    </g>
    <g id="xtick_5">
     <g id="line2d_9">
      <path d="M 672.363988 506.88 
L 672.363988 34.56 
" clip-path="url(#p02477e790a)" style="fill: none; stroke-dasharray: 0.8,1.32; stroke-dashoffset: 0; stroke: #808080; stroke-opacity: 0.2; stroke-width: 0.8"/>
     </g>
     <g id="line2d_10">
      <g>
       <use xlink:href="#mc652a978ca" x="672.363988" y="506.88" style="stroke: #000000; stroke-width: 0.8"/>
      </g>
     </g>
     <g id="text_5">
      <!-- $\mathdefault{120}$ -->
      <g transform="translate(654.544702 531.868102)scale(0.26 -0.26)">
       <defs>
        <path id="CMR17-32" d="M 2669 989 
L 2554 989 
C 2490 536 2438 459 2413 420 
C 2381 369 1920 369 1830 369 
L 602 369 
C 832 619 1280 1072 1824 1597 
C 2214 1967 2669 2402 2669 3035 
C 2669 3790 2067 4224 1395 4224 
C 691 4224 262 3604 262 3030 
C 262 2780 448 2748 525 2748 
C 589 2748 781 2787 781 3010 
C 781 3207 614 3264 525 3264 
C 486 3264 448 3258 422 3245 
C 544 3790 915 4058 1306 4058 
C 1862 4058 2227 3617 2227 3035 
C 2227 2479 1901 2000 1536 1584 
L 262 146 
L 262 0 
L 2515 0 
L 2669 989 
z
" transform="scale(0.015625)"/>
       </defs>
       <use xlink:href="#CMR17-31" transform="scale(0.996264)"/>
       <use xlink:href="#CMR17-32" transform="translate(45.690477 0)scale(0.996264)"/>
       <use xlink:href="#CMR17-30" transform="translate(91.380954 0)scale(0.996264)"/>
      </g>
     </g>
    </g>
    <g id="xtick_6">
     <g id="line2d_11">
      <path d="M 818.316555 506.88 
L 818.316555 34.56 
" clip-path="url(#p02477e790a)" style="fill: none; stroke-dasharray: 0.8,1.32; stroke-dashoffset: 0; stroke: #808080; stroke-opacity: 0.2; stroke-width: 0.8"/>
     </g>
     <g id="line2d_12">
      <g>
       <use xlink:href="#mc652a978ca" x="818.316555" y="506.88" style="stroke: #000000; stroke-width: 0.8"/>
      </g>
     </g>
     <g id="text_6">
      <!-- $\mathdefault{125}$ -->
      <g transform="translate(800.497269 531.868102)scale(0.26 -0.26)">
       <use xlink:href="#CMR17-31" transform="scale(0.996264)"/>
       <use xlink:href="#CMR17-32" transform="translate(45.690477 0)scale(0.996264)"/>
       <use xlink:href="#CMR17-35" transform="translate(91.380954 0)scale(0.996264)"/>
      </g>
     </g>
    </g>
    <g id="xtick_7">
     <g id="line2d_13">
      <path d="M 964.269122 506.88 
L 964.269122 34.56 
" clip-path="url(#p02477e790a)" style="fill: none; stroke-dasharray: 0.8,1.32; stroke-dashoffset: 0; stroke: #808080; stroke-opacity: 0.2; stroke-width: 0.8"/>
     </g>
     <g id="line2d_14">
      <g>
       <use xlink:href="#mc652a978ca" x="964.269122" y="506.88" style="stroke: #000000; stroke-width: 0.8"/>
      </g>
     </g>
     <g id="text_7">
      <!-- $\mathdefault{130}$ -->
      <g transform="translate(946.449836 531.868102)scale(0.26 -0.26)">
       <defs>
        <path id="CMR17-33" d="M 1414 2157 
C 1984 2157 2234 1662 2234 1090 
C 2234 320 1824 25 1453 25 
C 1114 25 563 194 390 693 
C 422 680 454 680 486 680 
C 640 680 755 782 755 948 
C 755 1133 614 1216 486 1216 
C 378 1216 211 1165 211 926 
C 211 335 787 -128 1466 -128 
C 2176 -128 2720 430 2720 1085 
C 2720 1707 2208 2157 1600 2227 
C 2086 2328 2554 2756 2554 3329 
C 2554 3820 2048 4179 1472 4179 
C 890 4179 378 3829 378 3329 
C 378 3110 544 3072 627 3072 
C 762 3072 877 3155 877 3321 
C 877 3486 762 3569 627 3569 
C 602 3569 570 3569 544 3557 
C 730 3959 1235 4032 1459 4032 
C 1683 4032 2106 3925 2106 3320 
C 2106 3143 2080 2828 1862 2550 
C 1670 2304 1453 2304 1242 2284 
C 1210 2284 1062 2269 1037 2269 
C 992 2263 966 2257 966 2208 
C 966 2163 973 2157 1101 2157 
L 1414 2157 
z
" transform="scale(0.015625)"/>
       </defs>
       <use xlink:href="#CMR17-31" transform="scale(0.996264)"/>
       <use xlink:href="#CMR17-33" transform="translate(45.690477 0)scale(0.996264)"/>
       <use xlink:href="#CMR17-30" transform="translate(91.380954 0)scale(0.996264)"/>
      </g>
     </g>
    </g>
    <g id="text_8">
     <!-- Time [s] -->
     <g transform="translate(533.827291 560.310257)scale(0.26 -0.26)">
      <defs>
       <path id="CMR17-54" d="M 3981 4326 
L 288 4326 
L 179 2918 
L 294 2918 
C 378 3976 467 4160 1453 4160 
C 1568 4160 1754 4160 1805 4154 
C 1926 4135 1926 4058 1926 3912 
L 1926 459 
C 1926 230 1907 160 1376 160 
L 1197 160 
L 1197 0 
C 1504 0 1824 0 2138 0 
C 2451 0 2771 0 3078 0 
L 3078 160 
L 2899 160 
C 2368 160 2349 230 2349 459 
L 2349 3912 
C 2349 4052 2349 4129 2464 4154 
C 2515 4160 2701 4160 2816 4160 
C 3795 4160 3891 3976 3974 2918 
L 4090 2918 
L 3981 4326 
z
" transform="scale(0.015625)"/>
       <path id="CMR17-69" d="M 992 3909 
C 992 4049 877 4170 730 4170 
C 589 4170 467 4056 467 3909 
C 467 3769 582 3648 730 3648 
C 870 3648 992 3763 992 3909 
z
M 243 2706 
L 243 2541 
C 602 2541 653 2502 653 2197 
L 653 427 
C 653 184 627 153 218 153 
L 218 -13 
C 371 0 646 0 806 0 
C 960 0 1222 0 1370 -13 
L 1370 153 
C 992 153 979 191 979 420 
L 979 2776 
L 243 2706 
z
" transform="scale(0.015625)"/>
       <path id="CMR17-6d" d="M 4326 1933 
C 4326 2252 4269 2790 3507 2790 
C 3072 2790 2771 2496 2656 2151 
L 2650 2151 
C 2573 2676 2195 2790 1837 2790 
C 1331 2790 1069 2400 973 2144 
L 966 2144 
L 966 2790 
L 211 2720 
L 211 2554 
C 589 2554 646 2515 646 2208 
L 646 428 
C 646 184 621 153 211 153 
L 211 -13 
C 365 0 646 0 813 0 
C 979 0 1267 0 1421 -13 
L 1421 153 
C 1011 153 986 178 986 428 
L 986 1658 
C 986 2247 1344 2688 1792 2688 
C 2266 2688 2317 2266 2317 1958 
L 2317 428 
C 2317 184 2291 153 1882 153 
L 1882 -13 
C 2035 0 2317 0 2483 0 
C 2650 0 2938 0 3091 -13 
L 3091 153 
C 2682 153 2656 178 2656 428 
L 2656 1658 
C 2656 2247 3014 2688 3462 2688 
C 3936 2688 3987 2266 3987 1958 
L 3987 428 
C 3987 184 3962 153 3552 153 
L 3552 -13 
C 3706 0 3987 0 4154 0 
C 4320 0 4608 0 4762 -13 
L 4762 153 
C 4352 153 4326 178 4326 428 
L 4326 1933 
z
" transform="scale(0.015625)"/>
       <path id="CMR17-65" d="M 2438 1472 
C 2464 1498 2464 1511 2464 1576 
C 2464 2238 2118 2816 1389 2816 
C 710 2816 173 2169 173 1383 
C 173 551 781 -64 1459 -64 
C 2176 -64 2458 607 2458 740 
C 2458 784 2419 784 2406 784 
C 2362 784 2355 771 2330 696 
C 2189 265 1837 51 1504 51 
C 1229 51 954 203 781 480 
C 582 803 582 1176 582 1472 
L 2438 1472 
z
M 589 1568 
C 634 2505 1126 2714 1382 2714 
C 1818 2714 2112 2297 2118 1568 
L 589 1568 
z
" transform="scale(0.015625)"/>
       <path id="CMR17-5b" d="M 1504 -1600 
L 1504 -1377 
L 902 -1377 
L 902 4544 
L 1504 4544 
L 1504 4767 
L 678 4767 
L 678 -1600 
L 1504 -1600 
z
" transform="scale(0.015625)"/>
       <path id="CMR17-73" d="M 1978 2697 
C 1978 2813 1971 2819 1933 2819 
C 1907 2819 1901 2813 1824 2717 
C 1805 2691 1747 2626 1728 2601 
C 1523 2819 1235 2819 1126 2819 
C 416 2819 160 2447 160 2076 
C 160 1498 813 1365 998 1325 
C 1402 1243 1542 1217 1677 1101 
C 1760 1025 1901 884 1901 654 
C 1901 384 1747 38 1158 38 
C 602 38 403 460 288 1021 
C 269 1110 269 1117 218 1117 
C 166 1117 160 1110 160 983 
L 160 63 
C 160 -51 166 -58 205 -58 
C 237 -58 243 -51 275 0 
C 314 57 410 211 448 276 
C 576 103 800 -64 1158 -64 
C 1792 -64 2131 283 2131 784 
C 2131 1112 1958 1285 1875 1362 
C 1683 1561 1459 1606 1190 1657 
C 838 1735 390 1825 390 2217 
C 390 2383 480 2737 1126 2737 
C 1811 2737 1850 2094 1862 1888 
C 1869 1856 1901 1849 1920 1849 
C 1978 1849 1978 1869 1978 1978 
L 1978 2697 
z
" transform="scale(0.015625)"/>
       <path id="CMR17-5d" d="M 915 4767 
L 90 4767 
L 90 4544 
L 691 4544 
L 691 -1377 
L 90 -1377 
L 90 -1600 
L 915 -1600 
L 915 4767 
z
" transform="scale(0.015625)"/>
      </defs>
      <use xlink:href="#CMR17-54" transform="scale(0.996264)"/>
      <use xlink:href="#CMR17-69" transform="translate(66.509881 0)scale(0.996264)"/>
      <use xlink:href="#CMR17-6d" transform="translate(91.380939 0)scale(0.996264)"/>
      <use xlink:href="#CMR17-65" transform="translate(168.300529 0)scale(0.996264)"/>
      <use xlink:href="#CMR17-5b" transform="translate(238.862156 0)scale(0.996264)"/>
      <use xlink:href="#CMR17-73" transform="translate(263.733214 0)scale(0.996264)"/>
      <use xlink:href="#CMR17-5d" transform="translate(299.534552 0)scale(0.996264)"/>
     </g>
    </g>
   </g>
   <g id="matplotlib.axis_2">
    <g id="ytick_1">
     <g id="line2d_15">
      <path d="M 74.88 448.109422 
L 1077.12 448.109422 
" clip-path="url(#p02477e790a)" style="fill: none; stroke-dasharray: 0.8,1.32; stroke-dashoffset: 0; stroke: #808080; stroke-opacity: 0.2; stroke-width: 0.8"/>
     </g>
     <g id="line2d_16">
      <defs>
       <path id="m7541f94659" d="M 0 0 
L -3.5 0 
" style="stroke: #000000; stroke-width: 0.8"/>
      </defs>
      <g>
       <use xlink:href="#m7541f94659" x="74.88" y="448.109422" style="stroke: #000000; stroke-width: 0.8"/>
      </g>
     </g>
     <g id="text_9">
      <!-- $\mathdefault{0.5}$ -->
      <g transform="translate(37.075686 457.103472)scale(0.26 -0.26)">
       <defs>
        <path id="CMMI12-3a" d="M 1178 307 
C 1178 492 1024 619 870 619 
C 685 619 557 466 557 313 
C 557 128 710 0 864 0 
C 1050 0 1178 153 1178 307 
z
" transform="scale(0.015625)"/>
       </defs>
       <use xlink:href="#CMR17-30" transform="scale(0.996264)"/>
       <use xlink:href="#CMMI12-3a" transform="translate(45.690477 0)scale(0.996264)"/>
       <use xlink:href="#CMR17-35" transform="translate(72.787654 0)scale(0.996264)"/>
      </g>
     </g>
    </g>
    <g id="ytick_2">
     <g id="line2d_17">
      <path d="M 74.88 365.111892 
L 1077.12 365.111892 
" clip-path="url(#p02477e790a)" style="fill: none; stroke-dasharray: 0.8,1.32; stroke-dashoffset: 0; stroke: #808080; stroke-opacity: 0.2; stroke-width: 0.8"/>
     </g>
     <g id="line2d_18">
      <g>
       <use xlink:href="#m7541f94659" x="74.88" y="365.111892" style="stroke: #000000; stroke-width: 0.8"/>
      </g>
     </g>
     <g id="text_10">
      <!-- $\mathdefault{1.0}$ -->
      <g transform="translate(37.075686 374.105943)scale(0.26 -0.26)">
       <use xlink:href="#CMR17-31" transform="scale(0.996264)"/>
       <use xlink:href="#CMMI12-3a" transform="translate(45.690477 0)scale(0.996264)"/>
       <use xlink:href="#CMR17-30" transform="translate(72.787654 0)scale(0.996264)"/>
      </g>
     </g>
    </g>
    <g id="ytick_3">
     <g id="line2d_19">
      <path d="M 74.88 282.114362 
L 1077.12 282.114362 
" clip-path="url(#p02477e790a)" style="fill: none; stroke-dasharray: 0.8,1.32; stroke-dashoffset: 0; stroke: #808080; stroke-opacity: 0.2; stroke-width: 0.8"/>
     </g>
     <g id="line2d_20">
      <g>
       <use xlink:href="#m7541f94659" x="74.88" y="282.114362" style="stroke: #000000; stroke-width: 0.8"/>
      </g>
     </g>
     <g id="text_11">
      <!-- $\mathdefault{1.5}$ -->
      <g transform="translate(37.075686 291.108413)scale(0.26 -0.26)">
       <use xlink:href="#CMR17-31" transform="scale(0.996264)"/>
       <use xlink:href="#CMMI12-3a" transform="translate(45.690477 0)scale(0.996264)"/>
       <use xlink:href="#CMR17-35" transform="translate(72.787654 0)scale(0.996264)"/>
      </g>
     </g>
    </g>
    <g id="ytick_4">
     <g id="line2d_21">
      <path d="M 74.88 199.116832 
L 1077.12 199.116832 
" clip-path="url(#p02477e790a)" style="fill: none; stroke-dasharray: 0.8,1.32; stroke-dashoffset: 0; stroke: #808080; stroke-opacity: 0.2; stroke-width: 0.8"/>
     </g>
     <g id="line2d_22">
      <g>
       <use xlink:href="#m7541f94659" x="74.88" y="199.116832" style="stroke: #000000; stroke-width: 0.8"/>
      </g>
     </g>
     <g id="text_12">
      <!-- $\mathdefault{2.0}$ -->
      <g transform="translate(37.075686 208.110883)scale(0.26 -0.26)">
       <use xlink:href="#CMR17-32" transform="scale(0.996264)"/>
       <use xlink:href="#CMMI12-3a" transform="translate(45.690477 0)scale(0.996264)"/>
       <use xlink:href="#CMR17-30" transform="translate(72.787654 0)scale(0.996264)"/>
      </g>
     </g>
    </g>
    <g id="ytick_5">
     <g id="line2d_23">
      <path d="M 74.88 116.119302 
L 1077.12 116.119302 
" clip-path="url(#p02477e790a)" style="fill: none; stroke-dasharray: 0.8,1.32; stroke-dashoffset: 0; stroke: #808080; stroke-opacity: 0.2; stroke-width: 0.8"/>
     </g>
     <g id="line2d_24">
      <g>
       <use xlink:href="#m7541f94659" x="74.88" y="116.119302" style="stroke: #000000; stroke-width: 0.8"/>
      </g>
     </g>
     <g id="text_13">
      <!-- $\mathdefault{2.5}$ -->
      <g transform="translate(37.075686 125.113353)scale(0.26 -0.26)">
       <use xlink:href="#CMR17-32" transform="scale(0.996264)"/>
       <use xlink:href="#CMMI12-3a" transform="translate(45.690477 0)scale(0.996264)"/>
       <use xlink:href="#CMR17-35" transform="translate(72.787654 0)scale(0.996264)"/>
      </g>
     </g>
    </g>
    <g id="text_14">
     <!-- Distance [m] -->
     <g transform="translate(26.621648 335.803376)rotate(-90)scale(0.26 -0.26)">
      <defs>
       <path id="CMR17-44" d="M 333 4352 
L 333 4186 
C 774 4186 845 4186 845 3900 
L 845 452 
C 845 166 774 166 333 166 
L 333 0 
L 2368 0 
C 3398 0 4224 943 4224 2141 
C 4224 3346 3411 4352 2368 4352 
L 333 4352 
z
M 1523 166 
C 1267 166 1254 197 1254 414 
L 1254 3938 
C 1254 4155 1267 4186 1523 4186 
L 2240 4186 
C 2771 4186 3750 3874 3750 2141 
C 3750 1242 3488 879 3366 707 
C 3213 510 2848 166 2240 166 
L 1523 166 
z
" transform="scale(0.015625)"/>
       <path id="CMR17-74" d="M 966 2560 
L 1862 2560 
L 1862 2725 
L 966 2725 
L 966 3904 
L 851 3904 
C 838 3245 614 2668 70 2668 
L 70 2560 
L 627 2560 
L 627 771 
C 627 650 627 -64 1370 -64 
C 1747 -64 1965 306 1965 777 
L 1965 1140 
L 1850 1140 
L 1850 783 
C 1850 344 1677 51 1408 51 
C 1222 51 966 178 966 758 
L 966 2560 
z
" transform="scale(0.015625)"/>
       <path id="CMR17-61" d="M 2304 1653 
C 2304 2072 2304 2294 2035 2543 
C 1798 2752 1523 2816 1306 2816 
C 800 2816 435 2407 435 1971 
C 435 1728 627 1728 666 1728 
C 749 1728 896 1778 896 1954 
C 896 2112 774 2181 666 2181 
C 640 2181 608 2174 589 2168 
C 723 2592 1069 2714 1293 2714 
C 1613 2714 1965 2429 1965 1885 
L 1965 1600 
C 1587 1600 1133 1549 774 1357 
C 371 1133 256 813 256 570 
C 256 77 832 -64 1171 -64 
C 1523 -64 1850 139 1990 511 
C 2003 233 2182 -18 2464 -18 
C 2598 -18 2938 70 2938 567 
L 2938 920 
L 2822 920 
L 2822 562 
C 2822 178 2650 128 2566 128 
C 2304 128 2304 458 2304 738 
L 2304 1653 
z
M 1965 870 
C 1965 317 1568 38 1216 38 
C 896 38 646 275 646 570 
C 646 761 730 1100 1101 1305 
C 1408 1478 1760 1504 1965 1504 
L 1965 870 
z
" transform="scale(0.015625)"/>
       <path id="CMR17-6e" d="M 2656 1933 
C 2656 2259 2592 2790 1837 2790 
C 1331 2790 1069 2400 973 2144 
L 966 2144 
L 966 2790 
L 211 2720 
L 211 2554 
C 589 2554 646 2515 646 2208 
L 646 428 
C 646 184 621 153 211 153 
L 211 -13 
C 365 0 646 0 813 0 
C 979 0 1267 0 1421 -13 
L 1421 153 
C 1011 153 986 178 986 428 
L 986 1658 
C 986 2247 1344 2688 1792 2688 
C 2266 2688 2317 2266 2317 1958 
L 2317 428 
C 2317 184 2291 153 1882 153 
L 1882 -13 
C 2035 0 2317 0 2483 0 
C 2650 0 2938 0 3091 -13 
L 3091 153 
C 2682 153 2656 178 2656 428 
L 2656 1933 
z
" transform="scale(0.015625)"/>
       <path id="CMR17-63" d="M 2234 2240 
C 2112 2240 1933 2240 1933 2017 
C 1933 1838 2080 1787 2163 1787 
C 2208 1787 2394 1807 2394 2024 
C 2394 2467 1958 2803 1466 2803 
C 787 2803 211 2178 211 1363 
C 211 516 813 -64 1466 -64 
C 2259 -64 2458 677 2458 748 
C 2458 774 2451 793 2406 793 
C 2362 793 2355 787 2330 703 
C 2163 180 1798 51 1523 51 
C 1114 51 621 427 621 1369 
C 621 2338 1094 2688 1472 2688 
C 1722 2688 2093 2573 2234 2240 
z
" transform="scale(0.015625)"/>
      </defs>
      <use xlink:href="#CMR17-44" transform="scale(0.996264)"/>
      <use xlink:href="#CMR17-69" transform="translate(70.393556 0)scale(0.996264)"/>
      <use xlink:href="#CMR17-73" transform="translate(95.264614 0)scale(0.996264)"/>
      <use xlink:href="#CMR17-74" transform="translate(131.065952 0)scale(0.996264)"/>
      <use xlink:href="#CMR17-61" transform="translate(166.34672 0)scale(0.996264)"/>
      <use xlink:href="#CMR17-6e" transform="translate(212.037197 0)scale(0.996264)"/>
      <use xlink:href="#CMR17-63" transform="translate(262.932567 0)scale(0.996264)"/>
      <use xlink:href="#CMR17-65" transform="translate(303.418227 0)scale(0.996264)"/>
      <use xlink:href="#CMR17-5b" transform="translate(373.979854 0)scale(0.996264)"/>
      <use xlink:href="#CMR17-6d" transform="translate(398.850912 0)scale(0.996264)"/>
      <use xlink:href="#CMR17-5d" transform="translate(475.770502 0)scale(0.996264)"/>
     </g>
    </g>
   </g>
   <g id="line2d_25">
    <path d="M 381.85417 506.88 
L 381.85417 34.56 
" clip-path="url(#p02477e790a)" style="fill: none; stroke: #000000; stroke-width: 1.5; stroke-linecap: square"/>
   </g>
   <g id="line2d_26">
    <path d="M 413.74541 506.88 
L 413.74541 34.56 
" clip-path="url(#p02477e790a)" style="fill: none; stroke: #000000; stroke-width: 1.5; stroke-linecap: square"/>
   </g>
   <g id="line2d_27">
    <path d="M 443.184554 506.88 
L 443.184554 34.56 
" clip-path="url(#p02477e790a)" style="fill: none; stroke: #000000; stroke-width: 1.5; stroke-linecap: square"/>
   </g>
   <g id="line2d_28">
    <path d="M 470.465767 506.88 
L 470.465767 34.56 
" clip-path="url(#p02477e790a)" style="fill: none; stroke: #000000; stroke-width: 1.5; stroke-linecap: square"/>
   </g>
   <g id="line2d_29">
    <path d="M 497.054052 506.88 
L 497.054052 34.56 
" clip-path="url(#p02477e790a)" style="fill: none; stroke: #000000; stroke-width: 1.5; stroke-linecap: square"/>
   </g>
   <g id="line2d_30">
    <path d="M 523.624138 506.88 
L 523.624138 34.56 
" clip-path="url(#p02477e790a)" style="fill: none; stroke: #000000; stroke-width: 1.5; stroke-linecap: square"/>
   </g>
   <g id="line2d_31">
    <path d="M 547.097574 506.88 
L 547.097574 34.56 
" clip-path="url(#p02477e790a)" style="fill: none; stroke: #000000; stroke-width: 1.5; stroke-linecap: square"/>
   </g>
   <g id="line2d_32">
    <path d="M 569.023963 506.88 
L 569.023963 34.56 
" clip-path="url(#p02477e790a)" style="fill: none; stroke: #000000; stroke-width: 1.5; stroke-linecap: square"/>
   </g>
   <g id="line2d_33">
    <path d="M 591.089779 506.88 
L 591.089779 34.56 
" clip-path="url(#p02477e790a)" style="fill: none; stroke: #000000; stroke-width: 1.5; stroke-linecap: square"/>
   </g>
   <g id="line2d_34">
    <path d="M 612.397017 506.88 
L 612.397017 34.56 
" clip-path="url(#p02477e790a)" style="fill: none; stroke: #000000; stroke-width: 1.5; stroke-linecap: square"/>
   </g>
   <g id="line2d_35">
    <path d="M 633.203981 506.88 
L 633.203981 34.56 
" clip-path="url(#p02477e790a)" style="fill: none; stroke: #000000; stroke-width: 1.5; stroke-linecap: square"/>
   </g>
   <g id="line2d_36">
    <path d="M 652.012945 506.88 
L 652.012945 34.56 
" clip-path="url(#p02477e790a)" style="fill: none; stroke: #000000; stroke-width: 1.5; stroke-linecap: square"/>
   </g>
   <g id="line2d_37">
    <path d="M 670.25197 506.88 
L 670.25197 34.56 
" clip-path="url(#p02477e790a)" style="fill: none; stroke: #000000; stroke-width: 1.5; stroke-linecap: square"/>
   </g>
   <g id="line2d_38">
    <path d="M 687.357889 506.88 
L 687.357889 34.56 
" clip-path="url(#p02477e790a)" style="fill: none; stroke: #000000; stroke-width: 1.5; stroke-linecap: square"/>
   </g>
   <g id="line2d_39">
    <path d="M 704.841057 506.88 
L 704.841057 34.56 
" clip-path="url(#p02477e790a)" style="fill: none; stroke: #000000; stroke-width: 1.5; stroke-linecap: square"/>
   </g>
   <g id="line2d_40">
    <path d="M 720.417083 506.88 
L 720.417083 34.56 
" clip-path="url(#p02477e790a)" style="fill: none; stroke: #000000; stroke-width: 1.5; stroke-linecap: square"/>
   </g>
   <g id="line2d_41">
    <path d="M 735.506433 506.88 
L 735.506433 34.56 
" clip-path="url(#p02477e790a)" style="fill: none; stroke: #000000; stroke-width: 1.5; stroke-linecap: square"/>
   </g>
   <g id="line2d_42">
    <path d="M 750.77674 506.88 
L 750.77674 34.56 
" clip-path="url(#p02477e790a)" style="fill: none; stroke: #000000; stroke-width: 1.5; stroke-linecap: square"/>
   </g>
   <g id="line2d_43">
    <path d="M 765.645931 506.88 
L 765.645931 34.56 
" clip-path="url(#p02477e790a)" style="fill: none; stroke: #000000; stroke-width: 1.5; stroke-linecap: square"/>
   </g>
   <g id="line2d_44">
    <path d="M 74.88 56.029091 
L 76.461108 56.435133 
L 79.317124 73.02385 
L 80.901022 77.446972 
L 83.618988 83.142908 
L 85.330386 83.680087 
L 88.02636 86.635906 
L 89.602512 88.962418 
L 92.538695 89.335539 
L 93.988929 90.367106 
L 98.53135 86.207915 
L 100.858787 83.519256 
L 102.40674 75.826399 
L 105.507384 83.519256 
L 107.179328 80.402607 
L 109.874745 83.870428 
L 111.53664 84.923943 
L 114.436403 84.386211 
L 115.98526 83.233929 
L 118.434796 82.103595 
L 119.901197 83.837505 
L 123.191315 88.040593 
L 124.800512 84.792254 
L 127.519173 86.548113 
L 129.057403 82.443793 
L 131.111866 83.047369 
L 132.817765 89.576969 
L 137.877985 90.575614 
L 140.343598 89.511124 
L 142.087441 91.881534 
L 144.988492 91.980301 
L 146.677529 92.29855 
L 149.493353 92.452188 
L 151.064766 89.214823 
L 153.724766 92.232706 
L 159.61403 93.637393 
L 162.502832 93.538626 
L 164.106746 93.330117 
L 166.740168 93.747134 
L 171.691053 93.900772 
L 173.122697 94.087332 
L 176.231637 93.878823 
L 177.974757 94.087332 
L 180.559475 93.867849 
L 182.065587 94.445512 
L 184.996265 94.671357 
L 186.486961 93.845901 
L 188.949351 94.011896 
L 190.540961 96.14899 
L 193.437112 98.870387 
L 194.94163 98.613925 
L 198.114041 101.805825 
L 199.695455 102.143994 
L 202.462779 107.376712 
L 204.092269 104.959547 
L 206.962462 113.498609 
L 208.594938 114.066497 
L 211.050508 122.327794 
L 212.619937 120.061777 
L 215.500847 124.288473 
L 217.063004 121.36696 
L 220.197584 122.379529 
L 221.767264 123.824793 
L 224.621512 126.15564 
L 226.091107 125.140027 
L 228.963693 126.193819 
L 230.530666 123.228871 
L 233.800998 126.866653 
L 235.511749 126.871725 
L 238.305894 127.312995 
L 239.861586 126.885742 
L 242.401554 127.45635 
L 247.476904 126.555135 
L 250.576184 127.254528 
L 252.106035 128.704448 
L 255.291155 127.038319 
L 256.858406 131.484405 
L 259.542166 141.856652 
L 261.113036 136.987233 
L 264.128927 142.342464 
L 265.716556 147.042568 
L 268.478687 144.999492 
L 270.011962 149.976761 
L 272.878215 149.107639 
L 274.427566 151.168929 
L 277.114458 156.153853 
L 278.705316 155.254205 
L 281.618331 154.832855 
L 283.172248 154.155687 
L 285.870817 155.083692 
L 287.390897 154.635689 
L 290.409432 155.20828 
L 291.943298 154.780658 
L 296.369273 154.187411 
L 299.175082 152.696314 
L 300.713278 152.762159 
L 303.499204 153.085711 
L 305.032743 153.721656 
L 307.843313 153.190057 
L 311.689688 154.731413 
L 313.23082 154.747736 
L 316.648215 160.883052 
L 318.184378 163.023973 
L 320.998796 166.221038 
L 322.525529 165.149955 
L 326.860347 177.250072 
L 329.778018 181.24087 
L 331.308564 180.389546 
L 333.962022 182.073474 
L 335.423377 182.453879 
L 342.508335 182.683321 
L 366.110892 182.683321 
L 369.15492 183.196753 
L 370.720626 183.752468 
L 373.296513 185.081351 
L 374.839329 187.431057 
L 377.54703 198.774882 
L 379.107001 197.12586 
L 381.85417 200.091684 
L 383.429035 203.709869 
L 386.355064 204.319947 
L 387.831145 204.253503 
L 392.625698 204.428674 
L 395.374334 203.679668 
L 397.020695 204.428674 
L 407.903631 204.439372 
L 412.211613 206.049339 
L 413.74541 205.011686 
L 417.120039 216.313552 
L 418.863193 210.852498 
L 421.508577 217.115861 
L 423.232238 216.639824 
L 427.755723 222.346919 
L 430.680576 223.475501 
L 432.663403 222.395057 
L 434.967025 223.684101 
L 436.62205 223.459454 
L 438.926047 223.684101 
L 457.636562 223.684101 
L 459.319787 224.344254 
L 461.727949 225.750048 
L 463.307372 225.032903 
L 466.248858 233.002234 
L 467.892811 234.113571 
L 470.465767 239.219071 
L 471.885699 240.054949 
L 474.862094 240.624865 
L 476.636789 240.781592 
L 494.424689 240.802803 
L 497.054052 242.580241 
L 501.423995 244.281321 
L 503.248924 246.326012 
L 505.990121 250.008151 
L 507.574834 251.331685 
L 510.245747 254.178131 
L 511.829047 256.630662 
L 514.693477 255.832549 
L 516.907083 255.879212 
L 519.098016 256.053138 
L 528.05504 256.152642 
L 530.037554 257.406827 
L 532.735678 257.488303 
L 534.407261 261.323066 
L 536.563687 268.441487 
L 538.153056 269.604928 
L 542.253038 269.830728 
L 555.718507 269.830728 
L 558.309928 272.206532 
L 559.952906 275.536808 
L 563.493332 279.683226 
L 565.023203 281.675167 
L 567.481696 282.19736 
L 569.023963 282.280357 
L 575.997783 282.280357 
L 577.478729 282.869824 
L 582.305519 282.760083 
L 584.790729 288.899318 
L 586.34729 288.824067 
L 589.563457 291.711827 
L 591.089779 291.761995 
L 593.620247 293.433196 
L 597.958977 293.568021 
L 610.809548 293.568021 
L 612.397017 294.076888 
L 615.7427 297.315913 
L 617.282997 297.690416 
L 621.403795 303.056391 
L 624.01647 303.716775 
L 625.564262 303.859715 
L 637.356236 303.880741 
L 639.090551 304.175105 
L 641.693009 306.417007 
L 643.346524 306.380211 
L 647.696765 311.436974 
L 650.458214 313.321433 
L 656.353018 313.321433 
L 659.208191 314.697302 
L 660.776661 313.868848 
L 663.784652 318.636733 
L 665.295441 319.763333 
L 668.439415 321.825913 
L 672.683724 322.621583 
L 674.364062 323.792402 
L 677.042254 327.579302 
L 678.556334 327.937851 
L 681.035065 329.978484 
L 682.518238 329.943072 
L 685.764177 330.198981 
L 687.357889 330.123453 
L 689.974572 330.38365 
L 691.469493 330.788263 
L 694.295687 332.827098 
L 695.799383 333.668278 
L 698.885962 336.214503 
L 700.380486 336.919706 
L 703.275169 338.416843 
L 704.841057 338.207412 
L 707.080198 339.52237 
L 708.493024 339.098253 
L 711.710512 344.145056 
L 713.239298 344.059845 
L 717.609839 344.712021 
L 720.417083 344.984069 
L 721.900631 344.691456 
L 725.056653 345.702458 
L 726.735118 347.57728 
L 729.961793 350.161178 
L 731.738812 350.662852 
L 734.060786 350.901977 
L 735.506433 350.93868 
L 740.590775 355.435855 
L 742.746485 356.630466 
L 744.244767 356.978134 
L 746.621924 357.051172 
L 750.77674 359.036888 
L 756.171916 360.838349 
L 757.707884 360.426128 
L 759.924665 361.777189 
L 761.447625 362.390126 
L 765.645931 362.663511 
L 768.270709 366.271967 
L 769.95818 365.870305 
L 773.467663 367.754441 
L 774.941065 367.767813 
L 777.598608 368.036632 
L 779.095081 367.721426 
L 781.174444 371.662057 
L 782.791651 372.186048 
L 787.930897 372.777359 
L 790.469947 373.198249 
L 792.083744 373.351379 
L 794.883123 374.711386 
L 796.358132 374.996713 
L 799.574305 377.411665 
L 801.189459 377.348955 
L 805.537222 377.339272 
L 808.286241 379.641993 
L 809.809808 379.557058 
L 812.495245 381.316975 
L 814.039425 381.398497 
L 816.771915 381.716009 
L 818.372983 381.722925 
L 821.240301 382.497569 
L 822.717649 383.189215 
L 826.232199 385.314874 
L 827.749349 385.850899 
L 831.895417 385.872341 
L 834.822441 387.998184 
L 836.361471 389.498134 
L 839.209901 389.845156 
L 840.722137 389.909064 
L 843.888048 390.362507 
L 845.374645 391.550386 
L 847.65839 393.701959 
L 849.17769 393.497047 
L 852.328144 394.371472 
L 853.810767 395.608781 
L 856.672692 397.480744 
L 858.221326 398.264563 
L 861.41067 400.473958 
L 862.87515 400.255075 
L 867.147186 401.287979 
L 870.188862 402.798396 
L 871.721747 403.405476 
L 874.084169 404.633655 
L 875.853693 403.995543 
L 878.707447 406.459601 
L 880.220324 406.635833 
L 883.082791 407.982052 
L 884.584469 408.335576 
L 887.488346 411.31219 
L 888.981777 411.318784 
L 892.078573 411.108477 
L 893.589174 413.812076 
L 896.137145 411.487315 
L 900.749065 413.821251 
L 902.265296 414.974548 
L 905.080578 415.388844 
L 906.860652 415.976282 
L 909.796786 422.947844 
L 911.566749 427.529262 
L 913.910833 423.618695 
L 915.39425 423.248572 
L 919.910991 422.044232 
L 922.610507 423.643825 
L 924.13589 424.304992 
L 927.324906 425.957012 
L 928.842947 426.475516 
L 931.250628 427.989206 
L 932.783012 428.416229 
L 935.565994 430.343477 
L 937.131032 430.660528 
L 940.174636 432.006794 
L 941.672646 432.397851 
L 944.572487 433.590802 
L 946.203042 433.653188 
L 948.705582 434.752813 
L 950.246129 434.829909 
L 955.002899 435.994595 
L 959.052869 436.479162 
L 961.834884 438.693813 
L 963.404633 439.483073 
L 966.345347 441.11273 
L 967.876924 441.722762 
L 970.631379 443.47152 
L 972.168808 443.84298 
L 975.216887 444.764206 
L 976.743515 444.460112 
L 979.739725 446.067913 
L 981.280049 445.989849 
L 983.892035 447.858953 
L 985.412302 448.322633 
L 988.241621 449.752634 
L 989.758416 450.685342 
L 992.137764 451.748633 
L 993.676781 452.1129 
L 996.76732 453.231291 
L 998.281351 454.119872 
L 1000.847731 454.941225 
L 1002.418699 455.259151 
L 1005.579585 456.465474 
L 1007.049166 456.749003 
L 1009.583455 458.355467 
L 1011.102038 458.559917 
L 1014.222636 459.493639 
L 1015.675771 459.720223 
L 1018.276441 461.051595 
L 1022.405555 462.410495 
L 1023.973489 462.59641 
L 1027.143443 463.2982 
L 1028.631843 463.26477 
L 1031.654498 464.101662 
L 1033.15143 464.307773 
L 1036.133985 465.558269 
L 1037.68209 465.732333 
L 1040.374918 467.412572 
L 1045.031011 469.17461 
L 1050.854778 470.340218 
L 1053.907756 471.427485 
L 1055.575225 471.636639 
L 1059.661065 472.843792 
L 1062.623151 474.047994 
L 1064.191308 474.294312 
L 1066.688349 475.355482 
L 1068.367301 475.499529 
L 1071.198061 476.105964 
L 1072.750454 476.162587 
L 1075.457625 478.889839 
L 1077.12 485.410909 
L 1077.12 485.410909 
" clip-path="url(#p02477e790a)" style="fill: none; stroke: #ff0000; stroke-width: 1.5; stroke-linecap: square"/>
   </g>
   <g id="line2d_45">
    <path d="M 74.88 365.111892 
L 1077.12 365.111892 
" clip-path="url(#p02477e790a)" style="fill: none; stroke-dasharray: 3.7,1.6; stroke-dashoffset: 0; stroke: #000000; stroke-opacity: 0.5"/>
   </g>
   <g id="line2d_46">
    <path d="M 74.88 199.116832 
L 1077.12 199.116832 
" clip-path="url(#p02477e790a)" style="fill: none; stroke-dasharray: 3.7,1.6; stroke-dashoffset: 0; stroke: #000000; stroke-opacity: 0.5"/>
   </g>
   <g id="line2d_47"/>
   <g id="patch_3">
    <path d="M 74.88 506.88 
L 74.88 34.56 
" style="fill: none; stroke: #000000; stroke-width: 0.8; stroke-linejoin: miter; stroke-linecap: square"/>
   </g>
   <g id="patch_4">
    <path d="M 1077.12 506.88 
L 1077.12 34.56 
" style="fill: none; stroke: #000000; stroke-width: 0.8; stroke-linejoin: miter; stroke-linecap: square"/>
   </g>
   <g id="patch_5">
    <path d="M 74.88 506.88 
L 1077.12 506.88 
" style="fill: none; stroke: #000000; stroke-width: 0.8; stroke-linejoin: miter; stroke-linecap: square"/>
   </g>
   <g id="patch_6">
    <path d="M 74.88 34.56 
L 1077.12 34.56 
" style="fill: none; stroke: #000000; stroke-width: 0.8; stroke-linejoin: miter; stroke-linecap: square"/>
   </g>
   <g id="text_15">
    <!-- $\eighthnote$ -->
    <g transform="translate(381.85417 282.114362)scale(0.16 -0.16)">
     <defs>
      <path id="wasy10-b" d="M 1775 3219 
C 1858 3021 1980 2848 2153 2714 
C 2498 2438 3030 2010 3030 1837 
L 3030 1478 
L 3190 1478 
L 3190 1837 
C 3190 2355 3056 2893 2652 3213 
C 2306 3488 1775 3917 1775 4090 
L 1775 4442 
L 1615 4442 
L 1615 876 
C 1480 998 1275 1062 1064 1062 
C 699 1062 354 864 354 531 
C 354 198 699 0 1064 0 
C 1429 0 1775 198 1775 531 
L 1775 3219 
z
" transform="scale(0.015625)"/>
     </defs>
     <use xlink:href="#wasy10-b" transform="scale(0.247871)"/>
    </g>
   </g>
   <g id="text_16">
    <!-- $\eighthnote$ -->
    <g transform="translate(413.74541 282.114362)scale(0.16 -0.16)">
     <use xlink:href="#wasy10-b" transform="scale(0.247871)"/>
    </g>
   </g>
   <g id="text_17">
    <!-- $\eighthnote$ -->
    <g transform="translate(443.184554 282.114362)scale(0.16 -0.16)">
     <use xlink:href="#wasy10-b" transform="scale(0.247871)"/>
    </g>
   </g>
   <g id="text_18">
    <!-- $\eighthnote$ -->
    <g transform="translate(470.465767 282.114362)scale(0.16 -0.16)">
     <use xlink:href="#wasy10-b" transform="scale(0.247871)"/>
    </g>
   </g>
   <g id="text_19">
    <!-- $\eighthnote$ -->
    <g transform="translate(497.054052 282.114362)scale(0.16 -0.16)">
     <use xlink:href="#wasy10-b" transform="scale(0.247871)"/>
    </g>
   </g>
   <g id="text_20">
    <!-- $\eighthnote$ -->
    <g transform="translate(523.624138 282.114362)scale(0.16 -0.16)">
     <use xlink:href="#wasy10-b" transform="scale(0.247871)"/>
    </g>
   </g>
   <g id="text_21">
    <!-- $\eighthnote$ -->
    <g transform="translate(547.097574 282.114362)scale(0.16 -0.16)">
     <use xlink:href="#wasy10-b" transform="scale(0.247871)"/>
    </g>
   </g>
   <g id="text_22">
    <!-- $\eighthnote$ -->
    <g transform="translate(569.023963 282.114362)scale(0.16 -0.16)">
     <use xlink:href="#wasy10-b" transform="scale(0.247871)"/>
    </g>
   </g>
   <g id="text_23">
    <!-- $\eighthnote$ -->
    <g transform="translate(591.089779 282.114362)scale(0.16 -0.16)">
     <use xlink:href="#wasy10-b" transform="scale(0.247871)"/>
    </g>
   </g>
   <g id="text_24">
    <!-- $\eighthnote$ -->
    <g transform="translate(612.397017 282.114362)scale(0.16 -0.16)">
     <use xlink:href="#wasy10-b" transform="scale(0.247871)"/>
    </g>
   </g>
   <g id="text_25">
    <!-- $\eighthnote$ -->
    <g transform="translate(633.203981 282.114362)scale(0.16 -0.16)">
     <use xlink:href="#wasy10-b" transform="scale(0.247871)"/>
    </g>
   </g>
   <g id="text_26">
    <!-- $\eighthnote$ -->
    <g transform="translate(652.012945 282.114362)scale(0.16 -0.16)">
     <use xlink:href="#wasy10-b" transform="scale(0.247871)"/>
    </g>
   </g>
   <g id="text_27">
    <!-- $\eighthnote$ -->
    <g transform="translate(670.25197 282.114362)scale(0.16 -0.16)">
     <use xlink:href="#wasy10-b" transform="scale(0.247871)"/>
    </g>
   </g>
   <g id="text_28">
    <!-- $\eighthnote$ -->
    <g transform="translate(687.357889 282.114362)scale(0.16 -0.16)">
     <use xlink:href="#wasy10-b" transform="scale(0.247871)"/>
    </g>
   </g>
   <g id="text_29">
    <!-- $\eighthnote$ -->
    <g transform="translate(704.841057 282.114362)scale(0.16 -0.16)">
     <use xlink:href="#wasy10-b" transform="scale(0.247871)"/>
    </g>
   </g>
   <g id="text_30">
    <!-- $\eighthnote$ -->
    <g transform="translate(720.417083 282.114362)scale(0.16 -0.16)">
     <use xlink:href="#wasy10-b" transform="scale(0.247871)"/>
    </g>
   </g>
   <g id="text_31">
    <!-- $\eighthnote$ -->
    <g transform="translate(735.506433 282.114362)scale(0.16 -0.16)">
     <use xlink:href="#wasy10-b" transform="scale(0.247871)"/>
    </g>
   </g>
   <g id="text_32">
    <!-- $\eighthnote$ -->
    <g transform="translate(750.77674 282.114362)scale(0.16 -0.16)">
     <use xlink:href="#wasy10-b" transform="scale(0.247871)"/>
    </g>
   </g>
   <g id="text_33">
    <!-- $\eighthnote$ -->
    <g transform="translate(765.645931 282.114362)scale(0.16 -0.16)">
     <use xlink:href="#wasy10-b" transform="scale(0.247871)"/>
    </g>
   </g>
   <g id="text_34">
    <!-- Obstacle proximity alerts -->
    <g transform="translate(418.755644 28.514008)scale(0.312 -0.312)">
     <defs>
      <path id="CMR17-4f" d="M 4307 2135 
C 4307 3437 3366 4416 2304 4416 
C 1216 4416 294 3424 294 2135 
C 294 845 1229 -128 2298 -128 
C 3392 -128 4307 864 4307 2135 
z
M 2304 -13 
C 1574 -13 781 711 781 2217 
C 781 3716 1651 4301 2298 4301 
C 2976 4301 3821 3698 3821 2217 
C 3821 686 3008 -13 2304 -13 
z
" transform="scale(0.015625)"/>
      <path id="CMR17-62" d="M 960 4396 
L 198 4326 
L 198 4160 
C 576 4160 634 4122 634 3817 
L 634 -13 
L 749 -13 
L 934 441 
C 1120 141 1395 -64 1766 -64 
C 2406 -64 3053 500 3053 1370 
C 3053 2188 2477 2790 1830 2790 
C 1434 2790 1152 2579 960 2330 
L 960 4396 
z
M 973 2004 
C 973 2118 973 2138 1062 2272 
C 1312 2657 1670 2688 1792 2688 
C 1984 2688 2643 2585 2643 1376 
C 2643 108 1888 38 1734 38 
C 1536 38 1248 114 1043 486 
C 973 608 973 621 973 735 
L 973 2004 
z
" transform="scale(0.015625)"/>
      <path id="CMR17-6c" d="M 979 4396 
L 218 4326 
L 218 4160 
C 595 4160 653 4122 653 3817 
L 653 426 
C 653 184 627 153 218 153 
L 218 -13 
C 371 0 653 0 813 0 
C 979 0 1261 0 1414 -13 
L 1414 153 
C 1005 153 979 178 979 426 
L 979 4396 
z
" transform="scale(0.015625)"/>
      <path id="CMR17-70" d="M 1408 -1063 
C 998 -1063 973 -1037 973 -789 
L 973 402 
C 1158 134 1427 -38 1766 -38 
C 2406 -38 3053 523 3053 1388 
C 3053 2191 2496 2802 1837 2802 
C 1453 2802 1139 2592 960 2338 
L 960 2802 
L 198 2732 
L 198 2567 
C 576 2567 634 2528 634 2223 
L 634 -789 
C 634 -1031 608 -1063 198 -1063 
L 198 -1228 
C 352 -1216 634 -1216 800 -1216 
C 966 -1216 1254 -1216 1408 -1228 
L 1408 -1063 
z
M 973 2012 
C 973 2102 973 2235 1222 2471 
C 1254 2497 1472 2688 1792 2688 
C 2259 2688 2643 2108 2643 1382 
C 2643 656 2234 64 1728 64 
C 1498 64 1248 172 1056 472 
C 973 612 973 650 973 752 
L 973 2012 
z
" transform="scale(0.015625)"/>
      <path id="CMR17-72" d="M 960 1497 
C 960 2112 1222 2688 1702 2688 
C 1747 2688 1792 2682 1837 2662 
C 1837 2662 1696 2617 1696 2452 
C 1696 2298 1818 2234 1914 2234 
C 1990 2234 2131 2279 2131 2458 
C 2131 2663 1926 2790 1709 2790 
C 1222 2790 1011 2317 947 2093 
L 941 2093 
L 941 2790 
L 198 2720 
L 198 2554 
C 576 2554 634 2515 634 2208 
L 634 428 
C 634 184 608 153 198 153 
L 198 -13 
C 352 0 646 0 813 0 
C 998 0 1325 0 1498 -13 
L 1498 153 
C 1037 153 960 153 960 440 
L 960 1497 
z
" transform="scale(0.015625)"/>
      <path id="CMR17-6f" d="M 2758 1356 
C 2758 2176 2163 2816 1466 2816 
C 768 2816 173 2176 173 1356 
C 173 551 768 -64 1466 -64 
C 2163 -64 2758 551 2758 1356 
z
M 1466 51 
C 1165 51 909 230 762 480 
C 602 767 582 1126 582 1408 
C 582 1677 595 2010 762 2298 
C 890 2509 1139 2714 1466 2714 
C 1754 2714 1997 2554 2150 2330 
C 2349 2029 2349 1607 2349 1408 
C 2349 1158 2336 775 2163 467 
C 1984 173 1709 51 1466 51 
z
" transform="scale(0.015625)"/>
      <path id="CMR17-78" d="M 1664 1477 
C 1856 1726 2074 2006 2253 2216 
C 2464 2458 2707 2560 2989 2560 
L 2989 2726 
C 2880 2726 2656 2726 2541 2726 
C 2368 2726 2170 2726 2022 2732 
L 2022 2566 
C 2112 2553 2163 2489 2163 2400 
C 2163 2285 2099 2215 2067 2171 
L 1594 1573 
L 1030 2306 
C 973 2376 973 2388 973 2420 
C 973 2497 1037 2560 1146 2560 
L 1146 2732 
C 992 2726 717 2726 557 2726 
C 384 2726 179 2726 38 2732 
L 38 2560 
C 384 2560 461 2534 614 2343 
L 1350 1395 
C 1363 1382 1395 1344 1395 1325 
C 1395 1299 838 619 768 530 
C 480 185 179 160 6 160 
L 6 0 
C 115 0 339 0 454 0 
C 582 0 864 0 979 -6 
L 979 160 
C 941 166 838 179 838 325 
C 838 440 890 510 947 586 
L 1478 1236 
L 2035 512 
C 2086 442 2163 346 2163 301 
C 2163 211 2086 160 1984 160 
L 1984 -6 
C 2138 0 2413 0 2573 0 
C 2746 0 2950 0 3091 -6 
L 3091 160 
C 2771 160 2675 172 2522 370 
L 1664 1477 
z
" transform="scale(0.015625)"/>
      <path id="CMR17-79" d="M 2496 2197 
C 2656 2586 2944 2586 3034 2586 
L 3034 2752 
C 2912 2752 2752 2752 2630 2752 
C 2496 2752 2285 2752 2157 2758 
L 2157 2592 
C 2400 2573 2406 2394 2406 2343 
C 2406 2280 2394 2248 2362 2171 
L 1664 449 
L 902 2306 
C 870 2382 870 2426 870 2433 
C 870 2573 1018 2586 1171 2586 
L 1171 2758 
C 1018 2752 742 2752 582 2752 
C 410 2752 205 2752 64 2758 
L 64 2586 
C 410 2586 448 2554 531 2350 
L 1485 15 
C 1197 -738 1030 -1178 627 -1178 
C 557 -1178 397 -1159 282 -1044 
C 429 -1031 493 -942 493 -833 
C 493 -725 416 -629 288 -629 
C 147 -629 77 -725 77 -840 
C 77 -1095 339 -1280 627 -1280 
C 998 -1280 1229 -922 1357 -604 
L 2496 2197 
z
" transform="scale(0.015625)"/>
     </defs>
     <use xlink:href="#CMR17-4f" transform="scale(0.996264)"/>
     <use xlink:href="#CMR17-62" transform="translate(71.714788 0)scale(0.996264)"/>
     <use xlink:href="#CMR17-73" transform="translate(122.610158 0)scale(0.996264)"/>
     <use xlink:href="#CMR17-74" transform="translate(158.411496 0)scale(0.996264)"/>
     <use xlink:href="#CMR17-61" transform="translate(193.692264 0)scale(0.996264)"/>
     <use xlink:href="#CMR17-63" transform="translate(239.382741 0)scale(0.996264)"/>
     <use xlink:href="#CMR17-6c" transform="translate(279.868401 0)scale(0.996264)"/>
     <use xlink:href="#CMR17-65" transform="translate(304.73946 0)scale(0.996264)"/>
     <use xlink:href="#CMR17-70" transform="translate(375.301087 0)scale(0.996264)"/>
     <use xlink:href="#CMR17-72" transform="translate(426.196456 0)scale(0.996264)"/>
     <use xlink:href="#CMR17-6f" transform="translate(461.477224 0)scale(0.996264)"/>
     <use xlink:href="#CMR17-78" transform="translate(504.565247 0)scale(0.996264)"/>
     <use xlink:href="#CMR17-69" transform="translate(552.858163 0)scale(0.996264)"/>
     <use xlink:href="#CMR17-6d" transform="translate(577.729222 0)scale(0.996264)"/>
     <use xlink:href="#CMR17-69" transform="translate(654.648811 0)scale(0.996264)"/>
     <use xlink:href="#CMR17-74" transform="translate(679.51987 0)scale(0.996264)"/>
     <use xlink:href="#CMR17-79" transform="translate(712.198184 0)scale(0.996264)"/>
     <use xlink:href="#CMR17-61" transform="translate(790.567066 0)scale(0.996264)"/>
     <use xlink:href="#CMR17-6c" transform="translate(836.257543 0)scale(0.996264)"/>
     <use xlink:href="#CMR17-65" transform="translate(861.128602 0)scale(0.996264)"/>
     <use xlink:href="#CMR17-72" transform="translate(901.614262 0)scale(0.996264)"/>
     <use xlink:href="#CMR17-74" transform="translate(936.89503 0)scale(0.996264)"/>
     <use xlink:href="#CMR17-73" transform="translate(972.175798 0)scale(0.996264)"/>
    </g>
   </g>
   <g id="legend_1">
    <g id="patch_7">
     <path d="M 594.860886 134.186901 
L 1063.12 134.186901 
Q 1067.12 134.186901 1067.12 130.186901 
L 1067.12 48.56 
Q 1067.12 44.56 1063.12 44.56 
L 594.860886 44.56 
Q 590.860886 44.56 590.860886 48.56 
L 590.860886 130.186901 
Q 590.860886 134.186901 594.860886 134.186901 
z
" style="fill: #ffffff; opacity: 0.8; stroke: #cccccc; stroke-linejoin: miter"/>
    </g>
    <g id="line2d_48">
     <path d="M 598.860886 59.56 
L 618.860886 59.56 
L 638.860886 59.56 
" style="fill: none; stroke: #ff0000; stroke-width: 1.5; stroke-linecap: square"/>
    </g>
    <g id="text_35">
     <!-- Average distance to the OAK-D sensor in the ROI -->
     <g transform="translate(654.860886 66.56)scale(0.2 -0.2)">
      <defs>
       <path id="CMR17-41" d="M 2323 4378 
C 2291 4461 2278 4480 2214 4480 
C 2150 4480 2138 4461 2106 4378 
L 749 566 
C 627 223 371 153 147 153 
L 147 -13 
C 262 0 518 0 640 0 
C 800 0 1056 0 1210 -13 
L 1210 153 
C 909 153 864 361 864 439 
C 864 497 877 530 890 569 
L 1229 1536 
L 2906 1536 
L 3290 442 
C 3322 365 3322 352 3322 327 
C 3322 153 3046 153 2925 153 
L 2925 0 
C 3110 0 3443 0 3642 0 
C 3808 0 4128 0 4282 -13 
L 4282 153 
C 3942 153 3827 153 3744 387 
L 2323 4378 
z
M 2067 3893 
L 2848 1702 
L 1286 1702 
L 2067 3893 
z
" transform="scale(0.015625)"/>
       <path id="CMR17-76" d="M 2502 2163 
C 2560 2304 2662 2560 3034 2560 
L 3034 2726 
C 2912 2726 2752 2726 2630 2726 
C 2496 2726 2285 2726 2157 2732 
L 2157 2566 
C 2317 2553 2406 2477 2406 2311 
C 2406 2253 2406 2240 2368 2151 
L 1664 377 
L 902 2286 
C 864 2369 864 2381 864 2407 
C 864 2560 1075 2560 1171 2560 
L 1171 2732 
C 1018 2726 736 2726 576 2726 
C 403 2726 205 2726 64 2732 
L 64 2560 
C 307 2560 442 2560 518 2362 
L 1446 44 
C 1485 -51 1491 -64 1549 -64 
C 1606 -64 1613 -51 1651 44 
L 2502 2163 
z
" transform="scale(0.015625)"/>
       <path id="CMR17-67" d="M 710 1164 
C 832 1068 1043 960 1299 960 
C 1805 960 2240 1357 2240 1888 
C 2240 2054 2189 2310 1997 2509 
C 2176 2692 2438 2752 2586 2752 
C 2611 2752 2650 2752 2682 2734 
C 2656 2728 2598 2703 2598 2605 
C 2598 2527 2656 2471 2739 2471 
C 2835 2471 2886 2533 2886 2614 
C 2886 2731 2790 2854 2586 2854 
C 2330 2854 2106 2738 1926 2580 
C 1734 2753 1504 2816 1299 2816 
C 794 2816 358 2419 358 1888 
C 358 1522 570 1292 634 1228 
C 442 1004 442 743 442 711 
C 442 545 506 302 723 168 
C 390 85 128 -169 128 -486 
C 128 -943 736 -1280 1466 -1280 
C 2170 -1280 2803 -956 2803 -479 
C 2803 384 1856 384 1363 384 
C 1216 384 954 384 922 391 
C 723 423 589 602 589 826 
C 589 883 589 1024 710 1164 
z
M 1299 1068 
C 736 1068 736 1760 736 1889 
C 736 2016 736 2708 1299 2708 
C 1862 2708 1862 2016 1862 1889 
C 1862 1760 1862 1068 1299 1068 
z
M 1466 -1171 
C 826 -1171 384 -835 384 -486 
C 384 -289 493 -105 634 -4 
C 794 104 858 104 1293 104 
C 1818 104 2547 104 2547 -486 
C 2547 -835 2106 -1171 1466 -1171 
z
" transform="scale(0.015625)"/>
       <path id="CMR17-64" d="M 1869 4326 
L 1869 4160 
C 2246 4160 2304 4122 2304 3820 
L 2304 2345 
C 2278 2377 2016 2790 1498 2790 
C 845 2790 211 2208 211 1364 
C 211 525 806 -64 1434 -64 
C 1978 -64 2259 337 2291 380 
L 2291 -63 
L 3066 -63 
L 3066 128 
C 2688 128 2630 166 2630 473 
L 2630 4396 
L 1869 4326 
z
M 2291 755 
C 2291 563 2176 390 2029 262 
C 1811 70 1594 38 1472 38 
C 1286 38 621 134 621 1356 
C 621 2612 1363 2688 1530 2688 
C 1824 2688 2061 2522 2208 2291 
C 2291 2157 2291 2138 2291 2023 
L 2291 755 
z
" transform="scale(0.015625)"/>
       <path id="CMR17-68" d="M 2656 1933 
C 2656 2259 2592 2790 1837 2790 
C 1312 2790 1056 2368 979 2157 
L 973 2157 
L 973 4396 
L 211 4326 
L 211 4160 
C 589 4160 646 4122 646 3817 
L 646 426 
C 646 184 621 153 211 153 
L 211 -13 
C 365 0 646 0 813 0 
C 979 0 1267 0 1421 -13 
L 1421 153 
C 1011 153 986 178 986 428 
L 986 1658 
C 986 2247 1344 2688 1792 2688 
C 2266 2688 2317 2266 2317 1958 
L 2317 428 
C 2317 184 2291 153 1882 153 
L 1882 -13 
C 2035 0 2317 0 2483 0 
C 2650 0 2938 0 3091 -13 
L 3091 153 
C 2682 153 2656 178 2656 428 
L 2656 1933 
z
" transform="scale(0.015625)"/>
       <path id="CMR17-4b" d="M 2362 2675 
L 3469 3782 
C 3699 4006 3942 4186 4301 4186 
L 4301 4352 
C 4173 4352 4013 4352 3885 4352 
C 3712 4352 3411 4352 3245 4358 
L 3245 4192 
C 3411 4180 3437 4065 3437 4019 
C 3437 3975 3411 3905 3386 3867 
L 1261 1738 
L 1261 3900 
C 1261 4186 1331 4186 1773 4186 
L 1773 4352 
C 1587 4352 1248 4352 1050 4352 
C 851 4352 512 4352 326 4352 
L 326 4186 
C 768 4186 838 4186 838 3899 
L 838 446 
C 838 160 768 160 326 160 
L 326 0 
C 512 0 851 0 1050 0 
C 1248 0 1587 0 1773 0 
L 1773 160 
C 1331 160 1261 160 1261 447 
L 1261 1579 
L 2080 2390 
L 3290 537 
C 3328 473 3373 390 3373 326 
C 3373 160 3194 160 3110 160 
L 3110 0 
C 3315 0 3610 0 3821 0 
C 3974 0 4237 0 4384 -6 
L 4384 160 
C 4077 160 3981 198 3789 493 
L 2362 2675 
z
" transform="scale(0.015625)"/>
       <path id="CMR17-2d" d="M 1632 1216 
L 1632 1496 
L 26 1496 
L 26 1216 
L 1632 1216 
z
" transform="scale(0.015625)"/>
       <path id="CMR17-52" d="M 2509 2146 
C 3117 2268 3629 2676 3629 3186 
C 3629 3785 2950 4326 2054 4326 
L 333 4326 
L 333 4160 
C 774 4160 845 4160 845 3873 
L 845 415 
C 845 128 774 128 333 128 
L 333 -26 
C 518 -26 851 -26 1050 -26 
C 1248 -26 1581 -26 1766 -26 
L 1766 128 
C 1325 128 1254 128 1254 417 
L 1254 2112 
L 2003 2112 
C 2368 2112 2573 1964 2662 1881 
C 2918 1632 2918 1459 2918 1024 
C 2918 595 2918 377 3110 160 
C 3354 -102 3680 -128 3821 -128 
C 4294 -128 4365 396 4365 503 
C 4365 540 4365 585 4307 585 
C 4256 585 4250 547 4250 522 
C 4218 112 4032 -26 3834 -26 
C 3482 -26 3443 375 3405 764 
C 3386 898 3373 993 3360 1133 
C 3322 1452 3270 1917 2509 2146 
z
M 1984 2214 
L 1254 2214 
L 1254 3913 
C 1254 4129 1267 4160 1523 4160 
L 1990 4160 
C 2522 4160 3142 3977 3142 3190 
C 3142 2372 2464 2214 1984 2214 
z
" transform="scale(0.015625)"/>
       <path id="CMR17-49" d="M 1261 3905 
C 1261 4192 1338 4192 1798 4192 
L 1798 4352 
C 1594 4352 1267 4352 1050 4352 
C 832 4352 506 4352 301 4352 
L 301 4192 
C 762 4192 838 4192 838 3905 
L 838 447 
C 838 160 762 160 301 160 
L 301 0 
C 506 0 832 0 1050 0 
C 1267 0 1594 0 1798 0 
L 1798 160 
C 1338 160 1261 160 1261 447 
L 1261 3905 
z
" transform="scale(0.015625)"/>
      </defs>
      <use xlink:href="#CMR17-41" transform="scale(0.996264)"/>
      <use xlink:href="#CMR17-76" transform="translate(69.07243 0)scale(0.996264)"/>
      <use xlink:href="#CMR17-65" transform="translate(114.762892 0)scale(0.996264)"/>
      <use xlink:href="#CMR17-72" transform="translate(155.248552 0)scale(0.996264)"/>
      <use xlink:href="#CMR17-61" transform="translate(190.52932 0)scale(0.996264)"/>
      <use xlink:href="#CMR17-67" transform="translate(236.219797 0)scale(0.996264)"/>
      <use xlink:href="#CMR17-65" transform="translate(281.910274 0)scale(0.996264)"/>
      <use xlink:href="#CMR17-64" transform="translate(352.471901 0)scale(0.996264)"/>
      <use xlink:href="#CMR17-69" transform="translate(403.367271 0)scale(0.996264)"/>
      <use xlink:href="#CMR17-73" transform="translate(428.238329 0)scale(0.996264)"/>
      <use xlink:href="#CMR17-74" transform="translate(464.039667 0)scale(0.996264)"/>
      <use xlink:href="#CMR17-61" transform="translate(499.320435 0)scale(0.996264)"/>
      <use xlink:href="#CMR17-6e" transform="translate(545.010912 0)scale(0.996264)"/>
      <use xlink:href="#CMR17-63" transform="translate(595.906282 0)scale(0.996264)"/>
      <use xlink:href="#CMR17-65" transform="translate(636.391942 0)scale(0.996264)"/>
      <use xlink:href="#CMR17-74" transform="translate(706.953569 0)scale(0.996264)"/>
      <use xlink:href="#CMR17-6f" transform="translate(742.234337 0)scale(0.996264)"/>
      <use xlink:href="#CMR17-74" transform="translate(818.00078 0)scale(0.996264)"/>
      <use xlink:href="#CMR17-68" transform="translate(853.281548 0)scale(0.996264)"/>
      <use xlink:href="#CMR17-65" transform="translate(904.176918 0)scale(0.996264)"/>
      <use xlink:href="#CMR17-4f" transform="translate(974.738545 0)scale(0.996264)"/>
      <use xlink:href="#CMR17-41" transform="translate(1043.850879 0)scale(0.996264)"/>
      <use xlink:href="#CMR17-4b" transform="translate(1112.923309 0)scale(0.996264)"/>
      <use xlink:href="#CMR17-2d" transform="translate(1184.598086 0)scale(0.996264)"/>
      <use xlink:href="#CMR17-44" transform="translate(1214.674053 0)scale(0.996264)"/>
      <use xlink:href="#CMR17-73" transform="translate(1315.143575 0)scale(0.996264)"/>
      <use xlink:href="#CMR17-65" transform="translate(1350.944912 0)scale(0.996264)"/>
      <use xlink:href="#CMR17-6e" transform="translate(1391.430573 0)scale(0.996264)"/>
      <use xlink:href="#CMR17-73" transform="translate(1442.325943 0)scale(0.996264)"/>
      <use xlink:href="#CMR17-6f" transform="translate(1478.12728 0)scale(0.996264)"/>
      <use xlink:href="#CMR17-72" transform="translate(1523.817757 0)scale(0.996264)"/>
      <use xlink:href="#CMR17-69" transform="translate(1589.174492 0)scale(0.996264)"/>
      <use xlink:href="#CMR17-6e" transform="translate(1614.04555 0)scale(0.996264)"/>
      <use xlink:href="#CMR17-74" transform="translate(1695.016886 0)scale(0.996264)"/>
      <use xlink:href="#CMR17-68" transform="translate(1730.297654 0)scale(0.996264)"/>
      <use xlink:href="#CMR17-65" transform="translate(1781.193024 0)scale(0.996264)"/>
      <use xlink:href="#CMR17-52" transform="translate(1851.754651 0)scale(0.996264)"/>
      <use xlink:href="#CMR17-4f" transform="translate(1916.943299 0)scale(0.996264)"/>
      <use xlink:href="#CMR17-49" transform="translate(1988.658087 0)scale(0.996264)"/>
     </g>
    </g>
    <g id="line2d_49">
     <path d="M 598.860886 87.435634 
L 618.860886 87.435634 
L 638.860886 87.435634 
" style="fill: none; stroke-dasharray: 3.7,1.6; stroke-dashoffset: 0; stroke: #000000; stroke-opacity: 0.5"/>
    </g>
    <g id="text_36">
     <!-- Obstacle proximity threshold -->
     <g transform="translate(654.860886 94.435634)scale(0.2 -0.2)">
      <use xlink:href="#CMR17-4f" transform="scale(0.996264)"/>
      <use xlink:href="#CMR17-62" transform="translate(71.714788 0)scale(0.996264)"/>
      <use xlink:href="#CMR17-73" transform="translate(122.610158 0)scale(0.996264)"/>
      <use xlink:href="#CMR17-74" transform="translate(158.411496 0)scale(0.996264)"/>
      <use xlink:href="#CMR17-61" transform="translate(193.692264 0)scale(0.996264)"/>
      <use xlink:href="#CMR17-63" transform="translate(239.382741 0)scale(0.996264)"/>
      <use xlink:href="#CMR17-6c" transform="translate(279.868401 0)scale(0.996264)"/>
      <use xlink:href="#CMR17-65" transform="translate(304.73946 0)scale(0.996264)"/>
      <use xlink:href="#CMR17-70" transform="translate(375.301087 0)scale(0.996264)"/>
      <use xlink:href="#CMR17-72" transform="translate(426.196456 0)scale(0.996264)"/>
      <use xlink:href="#CMR17-6f" transform="translate(461.477224 0)scale(0.996264)"/>
      <use xlink:href="#CMR17-78" transform="translate(504.565247 0)scale(0.996264)"/>
      <use xlink:href="#CMR17-69" transform="translate(552.858163 0)scale(0.996264)"/>
      <use xlink:href="#CMR17-6d" transform="translate(577.729222 0)scale(0.996264)"/>
      <use xlink:href="#CMR17-69" transform="translate(654.648811 0)scale(0.996264)"/>
      <use xlink:href="#CMR17-74" transform="translate(679.51987 0)scale(0.996264)"/>
      <use xlink:href="#CMR17-79" transform="translate(712.198184 0)scale(0.996264)"/>
      <use xlink:href="#CMR17-74" transform="translate(790.567066 0)scale(0.996264)"/>
      <use xlink:href="#CMR17-68" transform="translate(825.847834 0)scale(0.996264)"/>
      <use xlink:href="#CMR17-72" transform="translate(876.743204 0)scale(0.996264)"/>
      <use xlink:href="#CMR17-65" transform="translate(912.023971 0)scale(0.996264)"/>
      <use xlink:href="#CMR17-73" transform="translate(952.509632 0)scale(0.996264)"/>
      <use xlink:href="#CMR17-68" transform="translate(988.310969 0)scale(0.996264)"/>
      <use xlink:href="#CMR17-6f" transform="translate(1039.206339 0)scale(0.996264)"/>
      <use xlink:href="#CMR17-6c" transform="translate(1084.896816 0)scale(0.996264)"/>
      <use xlink:href="#CMR17-64" transform="translate(1109.767875 0)scale(0.996264)"/>
     </g>
    </g>
    <g id="line2d_50"/>
    <g id="text_37">
     <!-- $\eighthnote$ ROI obstacle alert -->
     <g transform="translate(654.860886 122.311267)scale(0.2 -0.2)">
      <use xlink:href="#wasy10-b" transform="scale(0.247871)"/>
      <use xlink:href="#CMR17-52" transform="translate(43.846592 0)scale(0.996264)"/>
      <use xlink:href="#CMR17-4f" transform="translate(109.03524 0)scale(0.996264)"/>
      <use xlink:href="#CMR17-49" transform="translate(180.750029 0)scale(0.996264)"/>
      <use xlink:href="#CMR17-6f" transform="translate(243.464404 0)scale(0.996264)"/>
      <use xlink:href="#CMR17-62" transform="translate(289.154881 0)scale(0.996264)"/>
      <use xlink:href="#CMR17-73" transform="translate(340.050251 0)scale(0.996264)"/>
      <use xlink:href="#CMR17-74" transform="translate(375.851589 0)scale(0.996264)"/>
      <use xlink:href="#CMR17-61" transform="translate(411.132356 0)scale(0.996264)"/>
      <use xlink:href="#CMR17-63" transform="translate(456.822834 0)scale(0.996264)"/>
      <use xlink:href="#CMR17-6c" transform="translate(497.308494 0)scale(0.996264)"/>
      <use xlink:href="#CMR17-65" transform="translate(522.179553 0)scale(0.996264)"/>
      <use xlink:href="#CMR17-61" transform="translate(592.741179 0)scale(0.996264)"/>
      <use xlink:href="#CMR17-6c" transform="translate(638.431656 0)scale(0.996264)"/>
      <use xlink:href="#CMR17-65" transform="translate(663.302715 0)scale(0.996264)"/>
      <use xlink:href="#CMR17-72" transform="translate(703.788375 0)scale(0.996264)"/>
      <use xlink:href="#CMR17-74" transform="translate(739.069143 0)scale(0.996264)"/>
     </g>
    </g>
   </g>
  </g>
 </g>
 <defs>
  <clipPath id="p02477e790a">
   <rect x="74.88" y="34.56" width="1002.24" height="472.32"/>
  </clipPath>
 </defs>
</svg>
